<?xml version="1.0" encoding="UTF-8"?>
<svg version="1.1" xmlns="http://www.w3.org/2000/svg" width="512" height="512">
<path d="M0 0 C5.51845965 5.88275894 7.48671408 12.67432826 7.2421875 20.67578125 C6.41213121 28.64164402 3.0925009 34.77109631 -3 40 C-4.9884069 41.02285776 -6.98754391 42.02531006 -9 43 C-9.00364563 43.69189423 -9.00729126 44.38378845 -9.01104736 45.09664917 C-9.04911154 51.65720449 -9.10617001 58.21729807 -9.18390274 64.77750969 C-9.22320235 68.14921728 -9.25547535 71.52067058 -9.27099609 74.89257812 C-9.29253112 78.78036897 -9.33923942 82.6671902 -9.390625 86.5546875 C-9.39185364 87.74988007 -9.39308228 88.94507263 -9.39434814 90.17648315 C-9.54814271 99.07119716 -11.31424994 105.81338962 -16.125 113.3125 C-25.17261708 121.7700551 -35.18205486 122.15260057 -46.9609375 122.09765625 C-48.10664215 122.0962413 -49.2523468 122.09482635 -50.43276978 122.09336853 C-54.08020678 122.0877858 -57.72758165 122.07523641 -61.375 122.0625 C-63.85286369 122.05748277 -66.33072835 122.05292025 -68.80859375 122.04882812 C-74.87241965 122.03782201 -80.9361993 122.0205692 -87 122 C-87 127.28 -87 132.56 -87 138 C-85.79587967 137.99111755 -84.59175934 137.98223511 -83.35115051 137.9730835 C-72.00661283 137.89201679 -60.66213387 137.83204366 -49.31737232 137.79275131 C-43.48481492 137.77187163 -37.65249124 137.74354652 -31.82006836 137.69824219 C-26.19203581 137.65479879 -20.56422816 137.63086577 -14.93604088 137.62049103 C-12.7882095 137.61309701 -10.64039051 137.59865833 -8.4926548 137.57707977 C-5.48547334 137.54806634 -2.4792226 137.54404321 0.52807617 137.54589844 C1.41712143 137.53151733 2.30616669 137.51713623 3.22215271 137.50231934 C7.34924819 137.52989188 9.46717537 137.67016493 13.0526886 139.88970947 C15.27860449 142.30192213 15.65669804 143.26402014 15.5625 146.5 C15.3812822 149.74060072 15.14326063 150.80239913 13.1875 153.5 C8.69476292 156.580734 4.17002594 156.13495815 -1.0612793 156.11352539 C-1.98830658 156.11367142 -2.91533386 156.11381744 -3.87045288 156.1139679 C-6.93839854 156.11327054 -10.00628368 156.10548637 -13.07421875 156.09765625 C-15.1998542 156.09579144 -17.32549007 156.09436784 -19.4511261 156.09336853 C-25.04889103 156.08954829 -30.64663007 156.07972219 -36.24438477 156.06866455 C-41.95523732 156.05843984 -47.66609406 156.05386863 -53.37695312 156.04882812 C-64.58464863 156.0380995 -75.79231811 156.02050667 -87 156 C-87 163.92 -87 171.84 -87 180 C-68.94560008 179.9620093 -50.89143146 179.903008 -32.83720016 179.81609726 C-24.45445175 179.7762738 -16.07179767 179.74389817 -7.68896484 179.72900391 C-0.38318015 179.71600446 6.92239728 179.68908374 14.22806525 179.64538693 C18.0970536 179.6227334 21.96578594 179.60709163 25.8348465 179.60811615 C29.47605831 179.60886049 33.11670341 179.59100185 36.75776863 179.55883217 C38.73220514 179.5462423 40.70673659 179.55341482 42.68119812 179.56114197 C43.85626419 179.54722916 45.03133026 179.53331635 46.24200439 179.51898193 C47.26335102 179.51529476 48.28469765 179.51160759 49.33699417 179.50780869 C52.70556879 178.86545506 53.89572185 177.65355247 56 175 C56.60799026 172.71529905 56.60799026 172.71529905 56.54589844 170.23144531 C56.56561707 169.29077209 56.58533569 168.35009888 56.60565186 167.38092041 C56.60688049 166.37349792 56.60810913 165.36607544 56.609375 164.328125 C56.62591125 163.29057068 56.64244751 162.25301636 56.65948486 161.184021 C56.70803985 157.8726209 56.72935302 154.56168029 56.75 151.25 C56.77815332 149.00388304 56.80807984 146.75778755 56.83984375 144.51171875 C56.91380062 139.00789613 56.9653992 133.50420313 57 128 C56.0507666 127.69835937 55.1015332 127.39671875 54.12353516 127.0859375 C48.74099687 125.21462827 45.46786161 121.56983396 42.66796875 116.66796875 C39.15806342 108.79238612 38.72793561 101.78231534 41.75 93.6875 C45.04619661 86.32292085 49.30928461 82.23367399 56.625 78.75 C64.47517219 77.00551729 72.88236179 76.91081692 80 81 C86.17589504 85.18489808 90.55772659 90.51650589 92 98 C92.67346182 107.06583215 91.98883529 113.79947473 86.6875 121.25 C83.96066267 124.04025216 81.39372138 126.08180965 78 128 C77.01 128 76.02 128 75 128 C75.00999275 128.91295837 75.00999275 128.91295837 75.02018738 129.84436035 C75.08678054 136.20380345 75.1318999 142.56314678 75.16479492 148.92285156 C75.17984099 151.29333523 75.20028273 153.66379125 75.22631836 156.03417969 C75.26288506 159.4499394 75.27976868 162.86532962 75.29296875 166.28125 C75.30845261 167.33364868 75.32393646 168.38604736 75.33988953 169.47033691 C75.34179624 177.88870083 73.94423013 185.01620405 67.90717888 191.27370167 C60.16593697 198.28074917 51.75158427 198.7059695 41.73779297 198.56762695 C40.32746939 198.56621374 38.91714214 198.56701379 37.50682068 198.56983948 C33.70761836 198.57126443 29.90921767 198.54202633 26.11020041 198.50696969 C22.12910198 198.47555072 18.14798184 198.47276328 14.16677856 198.46684265 C6.64104277 198.45134956 -0.88432653 198.4103832 -8.4099015 198.3600952 C-16.98307433 198.3040598 -25.55626537 198.27667969 -34.12957597 198.25161803 C-51.75326361 198.19946274 -69.3765888 198.11059333 -87 198 C-87 206.25 -87 214.5 -87 223 C-21.99 223 43.02 223 110 223 C110.66 221.35 111.32 219.7 112 218 C116.29638658 211.44556933 121.36231902 207.77024967 129 206 C136.8923599 205.04368341 143.5187485 205.96590495 150.12890625 210.44140625 C156.3622097 215.38901911 159.43686792 220.41985905 160.41015625 228.3359375 C160.78732636 237.25262566 159.33763002 244.04120451 153.390625 250.83984375 C147.85528095 256.03240274 142.02753729 258.12546838 134.5 258.375 C126.12485117 258.08620176 121.03020003 255.46644182 114.76171875 250.01171875 C113 248 113 248 110 242 C12.485 241.505 12.485 241.505 -87 241 C-87 249.25 -87 257.5 -87 266 C-85.23069122 265.98889694 -83.46138245 265.97779388 -81.63845825 265.96635437 C-64.95352036 265.86493713 -48.26864501 265.78971356 -31.58346748 265.74093914 C-23.00571406 265.71519613 -14.42819129 265.68012069 -5.85058594 265.62280273 C1.62874516 265.57284773 9.10790916 265.54068063 16.58740246 265.52955753 C20.54503967 265.5230591 24.50219897 265.50786865 28.45968246 265.47134972 C32.19113705 265.43719825 35.92192073 265.42698505 39.65351677 265.43446159 C41.66270927 265.43244828 43.67183011 265.40565393 45.68083191 265.37789917 C54.33090904 265.42675389 61.33500446 266.77744169 67.90717888 272.72629833 C74.86920782 279.94254972 75.43335793 288.17685117 75.29296875 297.71875 C75.28872391 298.81723267 75.28447906 299.91571533 75.28010559 301.04748535 C75.26340661 304.5319136 75.22576996 308.01574861 75.1875 311.5 C75.17244185 313.87238744 75.15875543 316.24478401 75.14648438 318.6171875 C75.11353188 324.41165836 75.06342035 330.20578678 75 336 C75.62398682 336.14622803 76.24797363 336.29245605 76.89086914 336.44311523 C83.12254591 338.08849719 86.87073852 342.71100316 90.0546875 348.03515625 C93.21832113 354.61080797 93.15460788 363.4602669 90.875 370.3125 C87.74653224 377.34424296 82.83344834 381.70982117 76 385 C68.29505059 387.41692097 60.01794101 386.83040081 52.89453125 383.12109375 C46.4693988 379.31900507 42.61562102 374.18218063 40.37890625 367.0078125 C38.88293323 359.08069772 39.99642247 352.00919585 44 345 C47.8079424 340.01187207 51.02269965 337.89942391 57 336 C56.95838038 329.37926123 56.88610345 322.75936647 56.79248047 316.13916016 C56.76425089 313.88695904 56.7430463 311.63465848 56.72900391 309.38232422 C56.7076024 306.14498917 56.66096505 302.90885226 56.609375 299.671875 C56.60753204 298.16074127 56.60753204 298.16074127 56.60565186 296.61907959 C56.58593323 295.67840637 56.5662146 294.73773315 56.54589844 293.76855469 C56.53701599 292.94248718 56.52813354 292.11641968 56.51898193 291.26531982 C55.79946834 288.12469335 54.48449243 287.01844751 52 285 C49.28211831 284.39719893 49.28211831 284.39719893 46.24200439 284.48101807 C45.06693832 284.46710526 43.89187225 284.45319244 42.68119812 284.43885803 C41.39582657 284.4438884 40.11045502 284.44891876 38.78613281 284.45410156 C37.41609015 284.44536558 36.04605769 284.4348797 34.67604065 284.42277527 C30.95937282 284.39489712 27.24303761 284.39151096 23.5262804 284.39249516 C19.64112192 284.38936758 15.75611359 284.36375266 11.87103271 284.34051514 C4.51527152 284.29993958 -2.84040099 284.27961082 -10.19625688 284.26654124 C-18.57111873 284.25067643 -26.94582955 284.21226304 -35.32060385 284.17194796 C-52.54702801 284.08952774 -69.77341901 284.03624878 -87 284 C-87 291.92 -87 299.84 -87 308 C-82.6692334 307.98428955 -82.6692334 307.98428955 -78.25097656 307.96826172 C-68.71956983 307.93514561 -59.18816057 307.91303975 -49.65671158 307.89637566 C-43.87690441 307.88593143 -38.0971561 307.87176048 -32.31738281 307.84912109 C-26.74124318 307.82741564 -21.16516024 307.81543619 -15.58898163 307.81024551 C-13.45988828 307.80654564 -11.33079809 307.79932085 -9.20172882 307.78853989 C-6.22328447 307.77405561 -3.24507537 307.77202079 -0.26660156 307.77294922 C0.61668823 307.76575867 1.49997803 307.75856812 2.41003418 307.75115967 C3.22329163 307.753909 4.03654907 307.75665833 4.87445068 307.75949097 C5.93082544 307.75672559 5.93082544 307.75672559 7.00854111 307.75390434 C9.40853321 308.05048472 10.95433425 308.71543586 13 310 C15.023815 313.0357225 15.33774253 313.95772487 15.4375 317.4375 C15.47746094 318.19933594 15.51742187 318.96117187 15.55859375 319.74609375 C14.69055093 323.2486162 13.04339888 324.12093676 10 326 C6.83927096 326.56672248 3.73161694 326.5059217 0.52807617 326.45410156 C-0.41875031 326.45468567 -1.36557678 326.45526978 -2.34109497 326.45587158 C-5.46344966 326.45309002 -8.58484381 326.42199399 -11.70703125 326.390625 C-13.87464374 326.38316289 -16.04226299 326.37746981 -18.20988464 326.37347412 C-23.90972583 326.35821559 -29.60915807 326.31893143 -35.30883789 326.2746582 C-41.12705961 326.23371051 -46.94534753 326.21546415 -52.76367188 326.1953125 C-64.17596073 326.15243776 -75.58794634 326.08418341 -87 326 C-87 331.28 -87 336.56 -87 342 C-85.47189697 341.98952637 -83.94379395 341.97905273 -82.36938477 341.96826172 C-76.67214319 341.93192101 -70.97491177 341.90904837 -65.27758789 341.89013672 C-62.81695835 341.88011115 -60.35634063 341.86648726 -57.89575195 341.84912109 C-54.34844028 341.82472122 -50.80128686 341.81348213 -47.25390625 341.8046875 C-46.1629213 341.79436493 -45.07193634 341.78404236 -43.94789124 341.77340698 C-33.67758291 341.77191577 -24.81413853 342.8162704 -17 350 C-12.22325941 356.34895919 -9.86122936 361.69354819 -9.90576172 369.62304688 C-9.90973465 371.31500183 -9.90973465 371.31500183 -9.91378784 373.0411377 C-9.91903473 374.25474976 -9.92428162 375.46836182 -9.9296875 376.71875 C-9.92110688 379.28516305 -9.91063232 381.85157033 -9.8984375 384.41796875 C-9.88013505 388.4672257 -9.87152935 392.51571728 -9.90039062 396.56494141 C-9.92723108 400.47082377 -9.89818294 404.37538408 -9.8671875 408.28125 C-9.89327591 410.10166809 -9.89327591 410.10166809 -9.91989136 411.9588623 C-10.09137199 417.77339219 -10.09137199 417.77339219 -7.45031738 422.61714172 C-5.35463958 423.88379955 -5.35463958 423.88379955 -2 425 C3.68514586 429.82767551 6.36987982 435.94153524 7.28125 443.2578125 C7.5813996 450.43639055 5.82572685 457.00676826 1.4375 462.75 C-3.52092585 468.04062808 -10.66689608 471.59342878 -17.9375 472.0625 C-27.6198038 471.76909685 -33.71156488 468.52024243 -40.3125 461.5625 C-45.20396952 454.13471295 -45.94557571 447.85402709 -45 439 C-43.33579131 432.42241329 -39.53636717 426.94985879 -34 423 C-32.00915993 422.30645817 -30.00962379 421.63706882 -28 421 C-28.09226749 413.38258876 -28.19957333 405.76549626 -28.31738281 398.1484375 C-28.3556877 395.55668964 -28.39053787 392.96488834 -28.421875 390.37304688 C-28.46749217 386.64954517 -28.5254931 382.92641185 -28.5859375 379.203125 C-28.60326431 377.46231659 -28.60326431 377.46231659 -28.62094116 375.68634033 C-28.6507457 374.06511261 -28.6507457 374.06511261 -28.68115234 372.41113281 C-28.70113785 370.98550018 -28.70113785 370.98550018 -28.7215271 369.53106689 C-29.02289989 366.7918607 -29.38365587 365.2343749 -31 363 C-34.4702571 361.1351044 -37.45214237 360.73895185 -41.35351562 360.69360352 C-42.92039124 360.66962242 -42.92039124 360.66962242 -44.5189209 360.64515686 C-45.6367395 360.63979416 -46.75455811 360.63443146 -47.90625 360.62890625 C-49.06370728 360.61987778 -50.22116455 360.6108493 -51.41369629 360.60154724 C-53.85796526 360.58705687 -56.30227291 360.57816103 -58.74658203 360.57446289 C-62.4866639 360.5625425 -66.2251087 360.51332121 -69.96484375 360.46289062 C-72.34113779 360.45342894 -74.71744195 360.44619269 -77.09375 360.44140625 C-78.77047791 360.41210777 -78.77047791 360.41210777 -80.4810791 360.38221741 C-86.75546409 360.33160229 -86.75546409 360.33160229 -92.03369141 363.42163086 C-92.68257324 364.27249268 -93.33145508 365.12335449 -94 366 C-107.4807688 373.25646952 -126.43734975 366.46239272 -140.20458984 362.33984375 C-156.76610364 357.0879609 -171.76905835 348.16852274 -185 337 C-185.96550781 336.18660156 -186.93101562 335.37320312 -187.92578125 334.53515625 C-194.36428834 328.89812307 -199.83348314 322.81309761 -205 316 C-205.59296875 315.22269531 -206.1859375 314.44539063 -206.796875 313.64453125 C-228.7410578 283.59710663 -237.51086409 245.9978096 -231.9375 209.1875 C-227.6699339 184.30006182 -216.24319856 161.18822708 -200 142 C-199.30003906 141.1646875 -198.60007813 140.329375 -197.87890625 139.46875 C-192.46842139 133.21920599 -186.57062179 128.00305916 -180 123 C-179.22140625 122.40574219 -178.4428125 121.81148437 -177.640625 121.19921875 C-155.7360934 105.21185089 -127.52156492 93.7410348 -100 95 C-95.93873969 96.03852228 -92.98354374 97.48762658 -90.62509155 101.11416626 C-89.14580826 103.21605482 -89.14580826 103.21605482 -86.66079712 103.49447632 C-85.74100067 103.49162628 -84.82120422 103.48877625 -83.87353516 103.48583984 C-82.82880035 103.4919931 -81.78406555 103.49814636 -80.70767212 103.50448608 C-79.01546036 103.48292953 -79.01546036 103.48292953 -77.2890625 103.4609375 C-75.54863174 103.45956284 -75.54863174 103.45956284 -73.77304077 103.4581604 C-71.31675126 103.45211393 -68.86046948 103.43633689 -66.40429688 103.41162109 C-62.64685839 103.37521181 -58.89040861 103.37060102 -55.1328125 103.37109375 C-52.74738732 103.36125905 -50.36196882 103.34960052 -47.9765625 103.3359375 C-46.29042343 103.33259903 -46.29042343 103.33259903 -44.57022095 103.32919312 C-43.51918182 103.31643341 -42.4681427 103.30367371 -41.38525391 103.29052734 C-40.00317245 103.27909195 -40.00317245 103.27909195 -38.59317017 103.26742554 C-35.66980559 102.96594808 -33.59065308 102.39453121 -31 101 C-28.81773003 97.98330996 -28.7323849 95.24345589 -28.68115234 91.58886719 C-28.66128265 90.50804871 -28.64141296 89.42723022 -28.62094116 88.31365967 C-28.60938995 87.15312073 -28.59783875 85.99258179 -28.5859375 84.796875 C-28.56657135 83.60394836 -28.5472052 82.41102173 -28.5272522 81.1819458 C-28.46746733 77.37136996 -28.42107473 73.5607639 -28.375 69.75 C-28.33681928 67.16665348 -28.2977675 64.58331968 -28.2578125 62 C-28.16176656 55.66677954 -28.07671564 49.33348251 -28 43 C-28.9492334 42.69908447 -29.8984668 42.39816895 -30.87646484 42.08813477 C-36.79919366 40.02485492 -40.58175565 35.3543964 -43.4375 29.875 C-46.04659225 23.21614283 -46.21476731 16.02496633 -44.15234375 9.19140625 C-41.02262478 2.22115077 -36.1567294 -2.76955983 -29.4375 -6.375 C-18.37904887 -9.21050029 -8.69163344 -7.62485348 0 0 Z " fill="#428DFE" transform="translate(352,24)"/>
<path d="M0 0 C1.46469727 -0.04350586 1.46469727 -0.04350586 2.95898438 -0.08789062 C8.85252747 -0.13983372 12.4590432 0.23682806 17.0625 4.3125 C21.23167773 9.83384348 22.21283134 13.86435108 22.22363281 20.6262207 C22.22859772 21.36804596 22.23356262 22.10987122 22.23867798 22.87417603 C22.2532853 25.32888721 22.2600995 27.78353374 22.265625 30.23828125 C22.271378 31.94597882 22.27713572 33.65367637 22.28289795 35.3613739 C22.29340412 38.94331157 22.29924918 42.52522682 22.30273438 46.10717773 C22.30821574 50.69041151 22.33223764 55.2733477 22.36070633 59.85648823 C22.37935814 63.3850134 22.38453968 66.91346728 22.38607025 70.44203758 C22.389092 72.13128472 22.39710438 73.82053074 22.41025543 75.50972939 C22.42736804 77.87691301 22.42542316 80.24337481 22.41894531 82.6105957 C22.4281601 83.30431778 22.43737488 83.99803986 22.4468689 84.71278381 C22.40054458 90.13448779 21.03865345 94.17017001 17.34375 98.17578125 C16.7559375 98.65402344 16.168125 99.13226563 15.5625 99.625 C14.9746875 100.11613281 14.386875 100.60726562 13.78125 101.11328125 C10.77460142 103.21110197 7.77707827 103.5253878 4.22265625 103.890625 C-37.72084361 108.46976176 -75.98789257 124.9800168 -103.75 157.75 C-130.63490379 192.26576933 -143.50994256 233.40948077 -138.16601562 277.24584961 C-132.51974701 316.24331673 -111.57799564 353.54697217 -79.9375 377.3125 C-79.13957031 377.91449219 -78.34164062 378.51648438 -77.51953125 379.13671875 C-53.43996161 396.61699361 -25.33677519 406.72621812 4.3125 408.8125 C10.51383715 409.32375528 14.22509717 411.17322183 18.375 415.8125 C22.03011033 420.18712024 22.21817562 424.06916406 22.23950195 429.59448242 C22.24607315 430.33309509 22.25264435 431.07170776 22.25941467 431.83270264 C22.27912815 434.27779242 22.2908075 436.72282075 22.30078125 439.16796875 C22.30485678 440.00473963 22.3089323 440.84151051 22.31313133 441.70363808 C22.33398636 446.13486102 22.34828906 450.56605306 22.35766602 454.99731445 C22.36871361 459.56250559 22.4030958 464.12720704 22.44283772 468.69222546 C22.46905341 472.21225354 22.47736235 475.73216598 22.48094749 479.2522831 C22.48580271 480.93431203 22.49738625 482.61633617 22.51598549 484.29826927 C22.68591486 500.68713963 22.68591486 500.68713963 18.0625 507.3125 C11.32370211 513.72257604 3.79655615 512.63531006 -4.94921875 512.53125 C-12.79745619 512.29780178 -19.94461431 510.62437595 -25.9375 505.3125 C-32.04677923 497.56756254 -33.48875025 489.18642097 -34.8125 479.6875 C-35.02404753 478.28745765 -35.23757655 476.88771321 -35.453125 475.48828125 C-35.97075607 472.09947535 -36.46163164 468.70745347 -36.9375 465.3125 C-37.52539307 465.13187012 -38.11328613 464.95124023 -38.71899414 464.76513672 C-56.88181518 459.15777529 -75.58047019 453.38049716 -91.78515625 443.14550781 C-95.31163325 440.86648692 -95.31163325 440.86648692 -99.37817383 440.51782227 C-102.2016374 441.39451538 -103.91323934 442.50812187 -106.23046875 444.33203125 C-107.02646484 444.94240234 -107.82246094 445.55277344 -108.64257812 446.18164062 C-110.27972971 447.46328172 -111.9151876 448.74708967 -113.54882812 450.03320312 C-120.65463925 455.47243044 -128.40454189 460.27809653 -137.6796875 459.6640625 C-148.73003833 457.94341964 -155.26175379 450.94231407 -162.89501953 443.34472656 C-164.99713686 441.25316254 -167.12002126 439.1843753 -169.24609375 437.1171875 C-170.66535521 435.72527522 -172.08335584 434.332076 -173.5 432.9375 C-174.15436035 432.29651367 -174.8087207 431.65552734 -175.48291016 430.99511719 C-183.22349946 423.26449516 -189.11642168 415.97589765 -190.3125 404.8125 C-189.37873974 396.09740426 -185.66514252 389.8793921 -180.4375 383 C-179.85613281 382.21560547 -179.27476562 381.43121094 -178.67578125 380.62304688 C-176.5732729 377.79163689 -174.46814402 374.96942562 -172.25195312 372.22583008 C-170.69890553 370.33857527 -170.69890553 370.33857527 -170.875 367.6875 C-171.85941086 364.56054787 -172.95895945 362.5264969 -174.69140625 359.78515625 C-177.91394183 354.49205616 -180.49529696 349.06386776 -182.9375 343.375 C-183.36611328 342.38443604 -183.79472656 341.39387207 -184.23632812 340.37329102 C-187.84175676 331.87293561 -190.77477998 323.24411397 -193.31835938 314.37280273 C-194.13187611 311.66567823 -195.03519897 308.99114681 -195.9375 306.3125 C-196.77410156 306.18198242 -197.61070312 306.05146484 -198.47265625 305.91699219 C-201.61296921 305.42055844 -204.7510635 304.91219289 -207.88818359 304.39599609 C-209.23931398 304.1761195 -210.59120187 303.96084133 -211.94384766 303.75048828 C-223.06970767 302.01541329 -231.21517741 300.26988373 -238.53125 291.2578125 C-243.48336737 284.40738347 -243.09484428 275.91962968 -243.10546875 267.79296875 C-243.10879715 266.89435623 -243.11212555 265.99574371 -243.11555481 265.06990051 C-243.12059602 263.17640694 -243.12296401 261.28290457 -243.12280273 259.3894043 C-243.12498539 256.51921675 -243.14316063 253.6494164 -243.16210938 250.77929688 C-243.1650448 248.9296888 -243.1670286 247.08007892 -243.16796875 245.23046875 C-243.17515427 244.38534225 -243.18233978 243.54021576 -243.18974304 242.66947937 C-243.15400992 233.17446949 -242.16919707 224.85755393 -235.4375 217.72265625 C-227.82330429 210.51384596 -217.88200074 209.60901569 -207.875 208.125 C-206.72322266 207.94775391 -205.57144531 207.77050781 -204.38476562 207.58789062 C-201.56999996 207.15574818 -198.75435107 206.7307936 -195.9375 206.3125 C-195.67646484 205.49797363 -195.41542969 204.68344727 -195.14648438 203.84423828 C-182.49151389 164.5661797 -182.49151389 164.5661797 -172.08984375 148.79296875 C-170.65394021 145.70212553 -171.00997817 144.54548951 -171.9375 141.3125 C-173.15482571 139.17359432 -173.15482571 139.17359432 -174.73828125 137.16796875 C-175.30353516 136.40806641 -175.86878906 135.64816406 -176.45117188 134.86523438 C-177.04478516 134.08470703 -177.63839844 133.30417969 -178.25 132.5 C-184.94648109 123.65293251 -190.69286727 115.83185082 -189.9375 104.3125 C-188.47267691 96.43175175 -184.15912188 91.18578029 -178.9375 85.3125 C-178.47069824 84.78543457 -178.00389648 84.25836914 -177.52294922 83.71533203 C-172.25754822 77.80013619 -166.96399902 71.99284043 -160.85546875 66.9296875 C-159.46146458 65.75429498 -158.1151036 64.5216764 -156.80078125 63.2578125 C-150.56648892 57.31728264 -144.22995663 53.30784967 -135.4375 52.8125 C-126.153203 53.43772704 -118.71007102 58.46736991 -111.5 63.9375 C-109.9389152 65.09650654 -108.37772191 66.25536697 -106.81640625 67.4140625 C-106.1416626 67.92275879 -105.46691895 68.43145508 -104.77172852 68.95556641 C-101.58239823 71.56264023 -101.58239823 71.56264023 -97.69140625 72.19140625 C-94.10245268 71.04599554 -91.07685353 69.18680513 -87.875 67.25 C-71.9722987 58.01438519 -54.45742437 52.61974043 -36.9375 47.3125 C-36.81745605 46.4560791 -36.69741211 45.5996582 -36.57373047 44.71728516 C-36.11043794 41.4899275 -35.62718839 38.26681213 -35.13085938 35.04443359 C-34.92150108 33.65887984 -34.71977781 32.27214709 -34.52636719 30.88427734 C-33.12735443 20.89648005 -31.26276159 11.93306532 -23.33984375 5.05859375 C-22.52644531 4.62675781 -21.71304688 4.19492188 -20.875 3.75 C-20.05902344 3.29496094 -19.24304688 2.83992187 -18.40234375 2.37109375 C-12.49019585 -0.16803791 -6.32597623 0.06238635 0 0 Z " fill="#438DFE" transform="translate(242.9375,-0.3125)"/>
<path d="M0 0 C0 22.77 0 45.54 0 69 C-9.405 69.99 -9.405 69.99 -19 71 C-54.53283021 76.72138792 -84.84961278 93.71439992 -111 118 C-111.64324219 118.5775 -112.28648437 119.155 -112.94921875 119.75 C-142.62649835 147.62300055 -159.3305422 190.69391495 -161.1262207 230.82055664 C-161.49806185 244.53146123 -160.72456238 257.56079277 -158 271 C-157.79503906 272.09699219 -157.59007812 273.19398438 -157.37890625 274.32421875 C-153.99403413 290.74400214 -148.02425887 306.33052968 -140 321 C-139.36670907 322.20157088 -138.73389027 323.40339073 -138.1015625 324.60546875 C-117.8367179 362.34054532 -80.44385565 389.38345147 -40.1875 402.3125 C-26.79299353 406.13229016 -14.05061409 407.59493859 0 409 C0 431.77 0 454.54 0 478 C-15 477 -15 477 -19 473 C-19.71886988 470.22498993 -20.21938992 467.6946701 -20.59765625 464.875 C-20.71805771 464.09108887 -20.83845917 463.30717773 -20.96250916 462.49951172 C-21.3448013 460.00172262 -21.70551791 457.5015225 -22.0625 455 C-22.42472655 452.49883171 -22.79185379 449.99881593 -23.17320251 447.50048828 C-23.40967987 445.94849662 -23.63507893 444.39476544 -23.84791565 442.83935547 C-24.45365636 438.83343283 -24.96485189 435.80656674 -28 433 C-30.34513853 431.94838603 -30.34513853 431.94838603 -33.05859375 431.359375 C-34.07421387 431.09793701 -35.08983398 430.83649902 -36.13623047 430.56713867 C-37.77035889 430.16265503 -37.77035889 430.16265503 -39.4375 429.75 C-59.39232466 424.4656509 -78.96345377 416.90571588 -96.109375 405.19921875 C-99.93962923 402.824141 -102.44000037 402.11612342 -107 403 C-110.15664418 404.70272924 -112.92291363 406.80222564 -115.75 409 C-116.54059814 409.58998779 -117.33119629 410.17997559 -118.14575195 410.7878418 C-121.58938845 413.36238847 -124.99057336 415.98788656 -128.37109375 418.64453125 C-129.30050781 419.35996094 -130.22992188 420.07539063 -131.1875 420.8125 C-132.35345703 421.75029297 -132.35345703 421.75029297 -133.54296875 422.70703125 C-137.03920149 424.5468612 -139.09423217 424.62441996 -143 424 C-145.69867333 422.29443845 -147.83285675 420.14613748 -150.0625 417.875 C-150.70227783 417.24916016 -151.34205566 416.62332031 -152.0012207 415.97851562 C-153.34018588 414.6636863 -154.671396 413.34091741 -155.99511719 412.01074219 C-157.95915213 410.04096725 -159.9477618 408.09978187 -161.9453125 406.1640625 C-163.19382819 404.94385311 -164.44126559 403.72253922 -165.6875 402.5 C-166.26314697 401.93780762 -166.83879395 401.37561523 -167.43188477 400.79638672 C-175.90679714 392.33281287 -175.90679714 392.33281287 -176.1328125 386.67578125 C-174.60936669 381.73246226 -172.00000088 378.25910477 -168.875 374.1875 C-168.2869458 373.39432373 -167.6988916 372.60114746 -167.09301758 371.78393555 C-164.62019507 368.44895298 -162.11082027 365.14429909 -159.58203125 361.8515625 C-158.95683594 361.01367188 -158.33164063 360.17578125 -157.6875 359.3125 C-157.15511719 358.62800781 -156.62273437 357.94351562 -156.07421875 357.23828125 C-154.44080638 353.83484384 -154.49627876 351.76264504 -155 348 C-156.57071775 344.51097429 -158.55238143 341.31334078 -160.5625 338.0625 C-171.58051167 319.46034849 -179.32863891 299.42302768 -184.08496094 278.28833008 C-185.26969835 275.32553824 -186.17479144 274.49806941 -189 273 C-191.7381674 272.39831232 -194.35654106 271.93762419 -197.125 271.5703125 C-198.73445304 271.32994904 -200.34382574 271.08904713 -201.953125 270.84765625 C-204.48009933 270.48237572 -207.00770384 270.12393991 -209.53710938 269.77587891 C-211.98618834 269.43424668 -214.4302352 269.06639287 -216.875 268.6953125 C-217.6292627 268.59928741 -218.38352539 268.50326233 -219.16064453 268.40432739 C-222.75807469 267.84471235 -224.76043266 267.22084483 -227.46166992 264.73071289 C-229.12270547 261.78218367 -229.57540717 259.97200887 -229.73828125 256.61328125 C-229.79322754 255.56092285 -229.84817383 254.50856445 -229.90478516 253.42431641 C-230.07387057 247.34331126 -230.18436574 241.27109152 -230.1875 235.1875 C-230.19974609 233.91712891 -230.21199219 232.64675781 -230.22460938 231.33789062 C-230.24662386 217.31466577 -230.24662386 217.31466577 -226.92822266 212.41870117 C-223.93435675 210.21594671 -220.56612636 210.00321972 -216.97265625 209.5 C-216.18733017 209.37818359 -215.40200409 209.25636719 -214.59288025 209.13085938 C-212.08437246 208.7421921 -209.57392444 208.36932005 -207.0625 208 C-203.75953353 207.51325372 -200.45942395 207.01114552 -197.16015625 206.5 C-196.4027565 206.39365234 -195.64535675 206.28730469 -194.86500549 206.17773438 C-190.85716499 205.55625546 -187.78760855 205.06085359 -185 202 C-183.86682682 199.37807788 -183.86682682 199.37807788 -183.17578125 196.3203125 C-182.87430176 195.1741748 -182.57282227 194.02803711 -182.26220703 192.84716797 C-181.94880371 191.61885254 -181.63540039 190.39053711 -181.3125 189.125 C-175.89916642 169.15870647 -168.13436643 149.51559908 -156.2109375 132.4375 C-154.46914223 128.93143469 -154.4139648 126.88655286 -155 123 C-156.68735358 119.85640644 -158.80695166 117.11878463 -161 114.3125 C-162.19265659 112.7209883 -163.38406197 111.12853821 -164.57421875 109.53515625 C-165.15864746 108.76316895 -165.74307617 107.99118164 -166.34521484 107.19580078 C-168.56328576 104.25255354 -170.70979298 101.27714038 -172.8125 98.25 C-173.43769531 97.36828125 -174.06289062 96.4865625 -174.70703125 95.578125 C-176.33106889 92.33986264 -176.60295678 90.5809189 -176 87 C-174.39555915 84.76958413 -172.92360414 83.03827035 -171 81.125 C-170.2109729 80.30721069 -170.2109729 80.30721069 -169.40600586 79.47290039 C-167.61973828 77.63248005 -165.81076371 75.81630828 -164 74 C-162.60502021 72.57986754 -161.21050332 71.15928026 -159.81640625 69.73828125 C-155.91479878 65.78589944 -152.01085458 61.84185464 -148 58 C-147.16339844 57.18660156 -146.32679688 56.37320313 -145.46484375 55.53515625 C-141.94537791 53.3431593 -140.09462171 53.31470766 -136 54 C-132.83713421 55.69044574 -130.07653658 57.80265305 -127.25 60 C-126.45940186 60.58998779 -125.66880371 61.17997559 -124.85424805 61.7878418 C-121.41061155 64.36238847 -118.00942664 66.98788656 -114.62890625 69.64453125 C-113.69949219 70.35996094 -112.77007812 71.07539062 -111.8125 71.8125 C-111.03519531 72.43769531 -110.25789063 73.06289062 -109.45703125 73.70703125 C-105.96966248 75.54219669 -103.91246121 75.53333238 -100 75 C-96.86271 73.61096235 -94.02292769 71.82844726 -91.125 70 C-89.43005507 68.97942329 -87.73207684 67.96386888 -86.03125 66.953125 C-85.18433594 66.44974609 -84.33742187 65.94636719 -83.46484375 65.42773438 C-67.20160907 56.00742966 -49.11130427 50.11434301 -30.8359375 46.01953125 C-27.44061889 44.79890018 -26.79024197 44.09375321 -25 41 C-24.38668947 38.26243934 -23.91403965 35.6438785 -23.53515625 32.875 C-23.28993035 31.26559195 -23.04448081 29.65621796 -22.79882812 28.046875 C-22.42735973 25.51961154 -22.06131391 22.9916886 -21.70043945 20.46289062 C-21.34677391 18.01462007 -20.97318516 15.56999775 -20.59765625 13.125 C-20.49646988 12.3707373 -20.39528351 11.61647461 -20.29103088 10.83935547 C-19.5881514 6.32406254 -18.68465964 3.78949134 -15 1 C-10.14345952 -0.71407311 -5.17936448 0 0 0 Z " fill="#E7ECFC" transform="translate(247,17)"/>
<path d="M0 0 C0 78.54 0 157.08 0 238 C-14.26918501 236.81090125 -14.26918501 236.81090125 -20.25 235.375 C-20.9618042 235.20460205 -21.6736084 235.0342041 -22.40698242 234.85864258 C-52.21995816 227.24185299 -78.42033 206.33982512 -94.11669922 180.13574219 C-105.46149952 160.57365435 -110.34963929 141.25442641 -110.4375 118.75 C-110.4436734 118.08116791 -110.4498468 117.41233582 -110.45620728 116.72323608 C-110.5323409 103.894426 -108.75207902 91.5822413 -104.3125 79.5 C-104.05903809 78.79987793 -103.80557617 78.09975586 -103.54443359 77.37841797 C-97.44607129 61.13928763 -87.89082462 47.56273765 -76 35 C-75.2678125 34.21496094 -74.535625 33.42992187 -73.78125 32.62109375 C-59.01285675 17.25468458 -38.65775429 7.12709607 -18.125 2.125 C-17.24513428 1.90948486 -16.36526855 1.69396973 -15.45874023 1.47192383 C-14.60868408 1.27751709 -13.75862793 1.08311035 -12.8828125 0.8828125 C-12.13402832 0.71152832 -11.38524414 0.54024414 -10.61376953 0.36376953 C-7.10756288 -0.12420431 -3.5400005 0 0 0 Z " fill="#A3C1F7" transform="translate(247,137)"/>
<path d="M0 0 C0.99 1.98 0.99 1.98 2 4 C1.0821875 4.89460938 0.164375 5.78921875 -0.78125 6.7109375 C-14.96526105 19.2731105 -14.96526105 19.2731105 -22.375 35.75 C-22.11478785 44.25611108 -15.84779717 51.25392669 -10.9375 57.75 C-10.31294922 58.58660156 -9.68839844 59.42320312 -9.04492188 60.28515625 C-5.72012881 64.7433853 -5.72012881 64.7433853 -2.29882812 69.12719727 C-1 71 -1 71 -1.00390625 73.23046875 C-2.45260089 77.25840795 -4.69176865 80.68276701 -6.9375 84.3125 C-15.76264858 99.05644162 -22.68202194 115.34494179 -27 132 C-27.29519531 133.13566406 -27.59039062 134.27132812 -27.89453125 135.44140625 C-28.61734928 138.28977136 -29.32005731 141.14115004 -30 144 C-32.64 144.33 -35.28 144.66 -38 145 C-38.13277344 145.98097656 -38.26554687 146.96195313 -38.40234375 147.97265625 C-38.78444571 150.66354362 -39.23949977 153.32748944 -39.75390625 155.99609375 C-43.65344902 176.89157812 -42.23674724 197.11537721 -39 218 C-38.66028845 220.33247917 -38.32975717 222.66608759 -38 225 C-36.7625 225.061875 -35.525 225.12375 -34.25 225.1875 C-32.03125 225.7421875 -32.03125 225.7421875 -30 227 C-27.9413749 231.1298028 -27.05025675 235.52436458 -26 240 C-20.62581929 258.94743198 -12.90582637 276.98622481 -2.0546875 293.44921875 C-1 296 -1 296 -1.4609375 298.31640625 C-3.65393399 302.14023515 -6.16395841 305.68355974 -8.75 309.25 C-9.83538542 310.76769308 -10.92002842 312.28591739 -12.00390625 313.8046875 C-12.52227051 314.52881836 -13.04063477 315.25294922 -13.57470703 315.99902344 C-15.31096974 318.43657212 -17.01331135 320.89441731 -18.6875 323.375 C-19.12449219 324.02210938 -19.56148438 324.66921875 -20.01171875 325.3359375 C-22.29966862 329.18837484 -22.29672278 332.62333894 -22 337 C-19.91209973 342.0305785 -16.92742402 345.77321258 -13.375 349.8125 C-12.58464355 350.72346436 -12.58464355 350.72346436 -11.77832031 351.65283203 C-7.39614492 356.65667719 -2.8125198 361.4062311 2 366 C1.34 367.32 0.68 368.64 0 370 C-3.25246232 370.40707702 -5.88216446 370.69100303 -8.75830078 368.91308594 C-10.61460036 367.30686602 -12.34275901 365.62674581 -14.0625 363.875 C-14.70227783 363.24916016 -15.34205566 362.62332031 -16.0012207 361.97851562 C-17.34018588 360.6636863 -18.671396 359.34091741 -19.99511719 358.01074219 C-21.95915213 356.04096725 -23.9477618 354.09978187 -25.9453125 352.1640625 C-27.19382819 350.94385311 -28.44126559 349.72253922 -29.6875 348.5 C-30.26314697 347.93780762 -30.83879395 347.37561523 -31.43188477 346.79638672 C-39.90679714 338.33281287 -39.90679714 338.33281287 -40.1328125 332.67578125 C-38.60936669 327.73246226 -36.00000088 324.25910477 -32.875 320.1875 C-32.2869458 319.39432373 -31.6988916 318.60114746 -31.09301758 317.78393555 C-28.62019507 314.44895298 -26.11082027 311.14429909 -23.58203125 307.8515625 C-22.95683594 307.01367188 -22.33164063 306.17578125 -21.6875 305.3125 C-21.15511719 304.62800781 -20.62273437 303.94351562 -20.07421875 303.23828125 C-18.44080638 299.83484384 -18.49627876 297.76264504 -19 294 C-20.57071775 290.51097429 -22.55238143 287.31334078 -24.5625 284.0625 C-35.58051167 265.46034849 -43.32863891 245.42302768 -48.08496094 224.28833008 C-49.26969835 221.32553824 -50.17479144 220.49806941 -53 219 C-55.7381674 218.39831232 -58.35654106 217.93762419 -61.125 217.5703125 C-62.73445304 217.32994904 -64.34382574 217.08904713 -65.953125 216.84765625 C-68.48009933 216.48237572 -71.00770384 216.12393991 -73.53710938 215.77587891 C-75.98618834 215.43424668 -78.4302352 215.06639287 -80.875 214.6953125 C-81.6292627 214.59928741 -82.38352539 214.50326233 -83.16064453 214.40432739 C-86.75807469 213.84471235 -88.76043266 213.22084483 -91.46166992 210.73071289 C-93.12270547 207.78218367 -93.57540717 205.97200887 -93.73828125 202.61328125 C-93.79322754 201.56092285 -93.84817383 200.50856445 -93.90478516 199.42431641 C-94.07387057 193.34331126 -94.18436574 187.27109152 -94.1875 181.1875 C-94.19974609 179.91712891 -94.21199219 178.64675781 -94.22460938 177.33789062 C-94.24662386 163.31466577 -94.24662386 163.31466577 -90.92822266 158.41870117 C-87.93435675 156.21594671 -84.56612636 156.00321972 -80.97265625 155.5 C-80.18733017 155.37818359 -79.40200409 155.25636719 -78.59288025 155.13085938 C-76.08437246 154.7421921 -73.57392444 154.36932005 -71.0625 154 C-67.75953353 153.51325372 -64.45942395 153.01114552 -61.16015625 152.5 C-60.4027565 152.39365234 -59.64535675 152.28730469 -58.86500549 152.17773438 C-54.85716499 151.55625546 -51.78760855 151.06085359 -49 148 C-47.86682682 145.37807788 -47.86682682 145.37807788 -47.17578125 142.3203125 C-46.87430176 141.1741748 -46.57282227 140.02803711 -46.26220703 138.84716797 C-45.94880371 137.61885254 -45.63540039 136.39053711 -45.3125 135.125 C-39.89916642 115.15870647 -32.13436643 95.51559908 -20.2109375 78.4375 C-18.46914223 74.93143469 -18.4139648 72.88655286 -19 69 C-20.68735358 65.85640644 -22.80695166 63.11878463 -25 60.3125 C-26.19265659 58.7209883 -27.38406197 57.12853821 -28.57421875 55.53515625 C-29.15864746 54.76316895 -29.74307617 53.99118164 -30.34521484 53.19580078 C-32.56328576 50.25255354 -34.70979298 47.27714038 -36.8125 44.25 C-37.43769531 43.36828125 -38.06289062 42.4865625 -38.70703125 41.578125 C-40.33106889 38.33986264 -40.60295678 36.5809189 -40 33 C-38.39555915 30.76958413 -36.92360414 29.03827035 -35 27.125 C-34.2109729 26.30721069 -34.2109729 26.30721069 -33.40600586 25.47290039 C-31.61973828 23.63248005 -29.81076371 21.81630828 -28 20 C-26.60502021 18.57986754 -25.21050332 17.15928026 -23.81640625 15.73828125 C-7.68528326 -0.60276731 -7.68528326 -0.60276731 0 0 Z " fill="#E7ECFC" transform="translate(111,71)"/>
<path d="M0 0 C4.30609297 3.54056533 8.24473332 7.2447467 12.125 11.25 C29.06616649 28.45472828 51.0192697 40.48277361 73.9453125 47.65625 C77.85836761 48.90780186 81.64831085 50.41934152 85.4621582 51.94287109 C93.38425755 55.08788716 101.27809329 57.84654901 109.5625 59.875 C110.3148291 60.06578125 111.0671582 60.2565625 111.84228516 60.453125 C121.18224288 62.5964036 130.32348992 63.03234899 140 64 C140 86.77 140 109.54 140 133 C125 132 125 132 121 128 C120.28113012 125.22498993 119.78061008 122.6946701 119.40234375 119.875 C119.28194229 119.09108887 119.16154083 118.30717773 119.03749084 117.49951172 C118.6551987 115.00172262 118.29448209 112.5015225 117.9375 110 C117.57527345 107.49883171 117.20814621 104.99881593 116.82679749 102.50048828 C116.59032013 100.94849662 116.36492107 99.39476544 116.15208435 97.83935547 C115.54634364 93.83343283 115.03514811 90.80656674 112 88 C109.65486147 86.94838603 109.65486147 86.94838603 106.94140625 86.359375 C105.92578613 86.09793701 104.91016602 85.83649902 103.86376953 85.56713867 C102.22964111 85.16265503 102.22964111 85.16265503 100.5625 84.75 C80.60767534 79.4656509 61.03654623 71.90571588 43.890625 60.19921875 C40.05649741 57.82326576 37.56406436 57.10724895 33 58 C29.80378427 59.74678643 26.9913394 61.88643272 24.125 64.125 C22.60802365 65.27509185 21.08979475 66.42353345 19.5703125 67.5703125 C18.4551123 68.41964355 18.4551123 68.41964355 17.31738281 69.28613281 C13.64236235 72.0040683 9.83190225 74.51011507 6 77 C5.39381836 76.29423828 5.39381836 76.29423828 4.77539062 75.57421875 C1.84564315 72.17117429 -1.14191538 68.83298155 -4.21875 65.5625 C-4.78891846 64.9555127 -5.35908691 64.34852539 -5.9465332 63.72314453 C-7.08718296 62.51227387 -8.2314302 61.30477971 -9.37963867 60.10107422 C-14.22043483 54.95831665 -18.59823759 50.09797658 -19.3125 42.8125 C-18.64304799 34.64518549 -13.25853796 28.27366896 -8.5 21.875 C-6.82463588 19.59939204 -5.15195662 17.32203141 -3.48730469 15.03857422 C-2.55999729 13.7675603 -1.62450218 12.50243075 -0.67675781 11.24658203 C0.59631319 9.54715254 0.59631319 9.54715254 2 7 C1.38771413 3.18503552 1.38771413 3.18503552 0 0 Z " fill="#E7ECFC" transform="translate(107,362)"/>
<path d="M0 0 C0 78.54 0 157.08 0 238 C-6.01607043 237.4986608 -12.04521541 236.9924641 -18 236 C-18 158.78 -18 81.56 -18 2 C-8 0 -8 0 0 0 Z " fill="#7FACF9" transform="translate(247,137)"/>
<path d="M0 0 C-1.11375 0.58265625 -2.2275 1.1653125 -3.375 1.765625 C-19.28349099 10.24652546 -33.07622426 20.44389925 -46 33 C-46.82878662 33.79591553 -46.82878662 33.79591553 -47.67431641 34.60791016 C-78.21198422 64.40628918 -94.68619475 108.31952582 -95.2409668 150.53588867 C-95.2769133 162.33119808 -94.3423388 173.44615315 -92 185 C-91.69255859 186.64548828 -91.69255859 186.64548828 -91.37890625 188.32421875 C-87.99403413 204.74400214 -82.02425887 220.33052968 -74 235 C-73.36670907 236.20157088 -72.73389027 237.40339073 -72.1015625 238.60546875 C-56.07686376 268.44498868 -29.46939185 290.29356774 0 306 C-3.40304827 307.13434942 -3.84590251 306.92814114 -6.9921875 305.59375 C-7.77327881 305.26568359 -8.55437012 304.93761719 -9.35913086 304.59960938 C-10.18936768 304.23673828 -11.01960449 303.87386719 -11.875 303.5 C-12.72908447 303.13197266 -13.58316895 302.76394531 -14.46313477 302.38476562 C-31.35943421 294.99750198 -46.35781191 285.41039616 -60 273 C-60.65613281 272.40654785 -61.31226563 271.8130957 -61.98828125 271.20166016 C-84.19240758 250.85310465 -93.73112265 224.01730351 -100 195 C-102.64 194.34 -105.28 193.68 -108 193 C-115.33110193 168.07425343 -116.36369766 137.80379039 -108 113 C-105.29120665 111.64560332 -102.99066732 111.93498549 -100 112 C-99.85304688 111.12601562 -99.70609375 110.25203125 -99.5546875 109.3515625 C-95.59192336 87.62468324 -87.15825648 56.00623699 -69.203125 41.8203125 C-66.58897274 39.66039237 -64.3374122 37.26888228 -62 34.8125 C-51.26245302 23.85097732 -16.29310828 -5.43103609 0 0 Z " fill="#C9D8FC" transform="translate(181,103)"/>
<path d="M0 0 C1.70899819 0.11555504 3.41719869 0.24293003 5.125 0.375 C6.55199219 0.47941406 6.55199219 0.47941406 8.0078125 0.5859375 C11.32391449 1.04482368 13.96951546 1.54896291 17 3 C18.3203125 5.58203125 18.3203125 5.58203125 19.125 8.8125 C19.43953125 9.98683594 19.7540625 11.16117187 20.078125 12.37109375 C20.38234375 13.56863281 20.6865625 14.76617187 21 16 C26.42103965 34.95066826 34.08309831 52.96942168 44.9453125 69.44921875 C46 72 46 72 45.5390625 74.31640625 C43.34606601 78.14023515 40.83604159 81.68355974 38.25 85.25 C37.16461458 86.76769308 36.07997158 88.28591739 34.99609375 89.8046875 C34.47772949 90.52881836 33.95936523 91.25294922 33.42529297 91.99902344 C31.68903026 94.43657212 29.98668865 96.89441731 28.3125 99.375 C27.65701172 100.34566406 27.65701172 100.34566406 26.98828125 101.3359375 C24.70033138 105.18837484 24.70327722 108.62333894 25 113 C27.08790027 118.0305785 30.07257598 121.77321258 33.625 125.8125 C34.1519043 126.41980957 34.67880859 127.02711914 35.22167969 127.65283203 C39.60385508 132.65667719 44.1874802 137.4062311 49 142 C48.34 143.32 47.68 144.64 47 146 C43.74753768 146.40707702 41.11783554 146.69100303 38.24169922 144.91308594 C36.38539964 143.30686602 34.65724099 141.62674581 32.9375 139.875 C32.29772217 139.24916016 31.65794434 138.62332031 30.9987793 137.97851562 C29.65981412 136.6636863 28.328604 135.34091741 27.00488281 134.01074219 C25.04084787 132.04096725 23.0522382 130.09978187 21.0546875 128.1640625 C19.80617181 126.94385311 18.55873441 125.72253922 17.3125 124.5 C16.73685303 123.93780762 16.16120605 123.37561523 15.56811523 122.79638672 C7.09320286 114.33281287 7.09320286 114.33281287 6.8671875 108.67578125 C8.39063331 103.73246226 10.99999912 100.25910477 14.125 96.1875 C14.7130542 95.39432373 15.3011084 94.60114746 15.90698242 93.78393555 C18.37980493 90.44895298 20.88917973 87.14429909 23.41796875 83.8515625 C24.35576172 82.59472656 24.35576172 82.59472656 25.3125 81.3125 C26.11107422 80.28576172 26.11107422 80.28576172 26.92578125 79.23828125 C28.55919362 75.83484384 28.50372124 73.76264504 28 70 C26.42928225 66.51097429 24.44761857 63.31334078 22.4375 60.0625 C14.86552873 47.27843688 9.42076814 34.61777326 4.625 20.5625 C4.27856445 19.55533936 3.93212891 18.54817871 3.57519531 17.51049805 C1.62750515 11.62103073 0.44810317 6.19022518 0 0 Z " fill="#FCFDFE" transform="translate(64,295)"/>
<path d="M0 0 C0.66 1.32 1.32 2.64 2 4 C1.0821875 4.89460938 0.164375 5.78921875 -0.78125 6.7109375 C-14.96526105 19.2731105 -14.96526105 19.2731105 -22.375 35.75 C-22.11478785 44.25611108 -15.84779717 51.25392669 -10.9375 57.75 C-10.31294922 58.58660156 -9.68839844 59.42320312 -9.04492188 60.28515625 C-5.72012881 64.7433853 -5.72012881 64.7433853 -2.29882812 69.12719727 C-1 71 -1 71 -1.00390625 73.23046875 C-2.45260089 77.25840795 -4.69176865 80.68276701 -6.9375 84.3125 C-15.76264858 99.05644162 -22.68202194 115.34494179 -27 132 C-27.29519531 133.13566406 -27.59039062 134.27132812 -27.89453125 135.44140625 C-28.61717106 138.28906905 -29.31176551 141.14382686 -30 144 C-38.415 144.99 -38.415 144.99 -47 146 C-44.02087314 122.1669851 -33.95962829 98.12994794 -20.2109375 78.4375 C-18.46914223 74.93143469 -18.4139648 72.88655286 -19 69 C-20.68735358 65.85640644 -22.80695166 63.11878463 -25 60.3125 C-26.19265659 58.7209883 -27.38406197 57.12853821 -28.57421875 55.53515625 C-29.15864746 54.76316895 -29.74307617 53.99118164 -30.34521484 53.19580078 C-32.56328576 50.25255354 -34.70979298 47.27714038 -36.8125 44.25 C-37.43769531 43.36828125 -38.06289062 42.4865625 -38.70703125 41.578125 C-40.33106889 38.33986264 -40.60295678 36.5809189 -40 33 C-38.39555915 30.76958413 -36.92360414 29.03827035 -35 27.125 C-34.47398193 26.57980713 -33.94796387 26.03461426 -33.40600586 25.47290039 C-31.61973828 23.63248005 -29.81076371 21.81630828 -28 20 C-26.60502021 18.57986754 -25.21050332 17.15928026 -23.81640625 15.73828125 C-7.68528326 -0.60276731 -7.68528326 -0.60276731 0 0 Z " fill="#FCFDFE" transform="translate(111,71)"/>
<path d="M0 0 C-0.309375 1.051875 -0.61875 2.10375 -0.9375 3.1875 C-4.92431819 19.38925052 -5.66678132 44.13301231 0 60 C-15.17022255 58.97425541 -15.17022255 58.97425541 -18.61401367 55.25854492 C-23.22044094 47.75210513 -21.18310676 34.71478847 -21.1875 26.1875 C-21.19974609 24.91712891 -21.21199219 23.64675781 -21.22460938 22.33789062 C-21.24686428 8.16151699 -21.24686428 8.16151699 -17.67578125 3.13671875 C-12.87406278 -0.12039098 -5.61293145 -0.29541744 0 0 Z " fill="#FBFCFE" transform="translate(38,226)"/>
<path d="M0 0 C3.3 0 6.6 0 10 0 C10 22.77 10 45.54 10 69 C1.585 69.495 1.585 69.495 -7 70 C-7 60.1 -7 50.2 -7 40 C-2.05 39.505 -2.05 39.505 3 39 C3.11214844 37.47761719 3.22429687 35.95523438 3.33984375 34.38671875 C3.97123175 27.4414508 5.24553818 20.6555369 6.5625 13.8125 C6.79646484 12.57435547 7.03042969 11.33621094 7.27148438 10.06054688 C7.84304216 7.03945575 8.41929542 4.01934385 9 1 C6.03 1 3.06 1 0 1 C0 0.67 0 0.34 0 0 Z " fill="#CAD9FC" transform="translate(237,17)"/>
<path d="M0 0 C5.61 0.33 11.22 0.66 17 1 C17 23.77 17 46.54 17 70 C14.69 70 12.38 70 10 70 C10 69.67 10 69.34 10 69 C11.98 69 13.96 69 16 69 C15.81824219 68.18402344 15.63648438 67.36804688 15.44921875 66.52734375 C12.95441506 54.76978174 11.45831636 42.92509759 10 31 C6.7 30.67 3.4 30.34 0 30 C0 20.1 0 10.2 0 0 Z " fill="#CAD9FC" transform="translate(230,425)"/>
<path d="M0 0 C1.26328125 0.03609375 2.5265625 0.0721875 3.828125 0.109375 C5.27445313 0.17898437 5.27445313 0.17898437 6.75 0.25 C5.97695812 8.3447259 4.59630635 16.30769565 3.1875 24.3125 C2.95092045 25.66857595 2.71459042 27.02469546 2.47851562 28.38085938 C1.90478858 31.67100833 1.3285527 34.96069679 0.75 38.25 C-1.14385437 38.75744423 -3.04018666 39.25564574 -4.9375 39.75 C-5.99324219 40.0284375 -7.04898438 40.306875 -8.13671875 40.59375 C-10.96142672 41.1891715 -13.37836708 41.37786492 -16.25 41.25 C-16.56130996 33.26835844 -15.39285396 25.78553973 -14 17.9375 C-13.79503906 16.67615234 -13.59007812 15.41480469 -13.37890625 14.11523438 C-13.16621094 12.90544922 -12.95351562 11.69566406 -12.734375 10.44921875 C-12.54584961 9.35440186 -12.35732422 8.25958496 -12.16308594 7.1315918 C-10.06314827 0.50443558 -6.51175011 -0.24117593 0 0 Z " fill="#FCFDFE" transform="translate(239.25,17.75)"/>
<path d="M0 0 C5.72398793 0.74660712 11.34853777 1.82877141 17 3 C18.82644899 11.5493357 20.38972625 20.1044558 21.6875 28.75 C21.81874268 29.61915039 21.94998535 30.48830078 22.08520508 31.38378906 C22.56353956 34.63684852 23 37.70613909 23 41 C20.75106046 41.10823773 18.50062425 41.18569645 16.25 41.25 C14.99703125 41.29640625 13.7440625 41.3428125 12.453125 41.390625 C9 41 9 41 6.87695312 39.39477539 C4.50021477 36.36233178 4.1162634 34.08854139 3.515625 30.29296875 C3.41030457 29.64934891 3.30498413 29.00572906 3.19647217 28.34260559 C2.97736229 26.98473883 2.76602018 25.62559843 2.56201172 24.26538086 C2.25215912 22.20187894 1.919358 20.14315491 1.58203125 18.08398438 C0.61505397 12.00722547 -0.1203309 6.17287631 0 0 Z " fill="#FDFDFE" transform="translate(223,453)"/>
<path d="M0 0 C4.43024874 0.87022743 5.91370196 2.00398461 8.5 5.6875 C9.12601538 9.65226406 9.15946039 11.68512021 6.9375 15.0625 C3.67160572 17.23976285 1.42016134 17.6875 -2.5 17.6875 C-6.28644566 15.71196313 -7.27321363 14.3678591 -8.625 10.3125 C-8.5 6.6875 -8.5 6.6875 -6.5 3.25 C-3.5 0.6875 -3.5 0.6875 0 0 Z " fill="#E2E9FC" transform="translate(332.5,460.3125)"/>
<path d="M0 0 C2.4375 1.625 2.4375 1.625 4 4 C4.72125695 8.40768137 4.52001338 10.25937488 1.9375 13.9375 C-1 16 -1 16 -4.5 16.6875 C-8 16 -8 16 -11 13.4375 C-13 10 -13 10 -13.125 6.375 C-10.80869361 -0.57391916 -6.85196698 -1.99329948 0 0 Z " fill="#E2E9FC" transform="translate(337,35)"/>
<path d="M0 0 C3.48326597 0.85529699 4.97293913 2.60978164 6.97265625 5.484375 C7.59765625 8.484375 7.59765625 8.484375 6.97265625 11.484375 C4.97293913 14.35896836 3.48326597 16.11345301 0 16.96875 C-3.74624162 17.22083355 -5.667774 16.79000928 -8.52734375 14.359375 C-10.29473679 10.97187167 -10.65508945 9.2508492 -10.02734375 5.484375 C-7.61458248 0.85991589 -5.2803869 -0.35531575 0 0 Z " fill="#E3EAFC" transform="translate(488.02734375,247.515625)"/>
<path d="M0 0 C3.06458538 2.04305692 3.82153128 3.44079802 4.9375 6.9375 C5.01221891 10.59872681 4.21363944 12.1304674 2 15 C-1.20841035 16.60420518 -4.5193987 16.47462745 -8 16 C-10.5 14.5 -10.5 14.5 -12 12 C-12.791013 7.97901723 -12.62153384 5.03588973 -10.5 1.5 C-6.97359191 -0.61584485 -4.01178761 -0.80730018 0 0 Z " fill="#E3EAFC" transform="translate(422,376)"/>
<path d="M0 0 C3.06458538 2.04305692 3.82153128 3.44079802 4.9375 6.9375 C5.01221891 10.59872681 4.21363944 12.1304674 2 15 C-1.20841035 16.60420518 -4.5193987 16.47462745 -8 16 C-10.5 14.5 -10.5 14.5 -12 12 C-12.791013 7.97901723 -12.62153384 5.03588973 -10.5 1.5 C-6.97359191 -0.61584485 -4.01178761 -0.80730018 0 0 Z " fill="#E3EAFC" transform="translate(422,120)"/>
<path d="M0 0 C-1.11776237 3.35328711 -1.48392095 3.58311383 -4.37890625 5.26171875 C-5.05244141 5.65810547 -5.72597656 6.05449219 -6.41992188 6.46289062 C-7.12697266 6.86701172 -7.83402344 7.27113281 -8.5625 7.6875 C-9.27341797 8.10322266 -9.98433594 8.51894531 -10.71679688 8.94726562 C-12.47322511 9.97283111 -14.23602691 10.98746671 -16 12 C-16.99 11.34 -17.98 10.68 -19 10 C-18 7 -18 7 -14.7265625 5.17578125 C-13.36433287 4.54388762 -11.99685877 3.92320665 -10.625 3.3125 C-9.93921875 2.99216797 -9.2534375 2.67183594 -8.546875 2.34179688 C-5.54299018 0.97134748 -3.33773084 0 0 0 Z " fill="#F6F9FE" transform="translate(186,73)"/>
<path d="M0 0 C2.1424416 1.07256487 4.24652869 2.22415177 6.3125 3.4375 C7.38113281 4.05496094 8.44976562 4.67242187 9.55078125 5.30859375 C10.35902344 5.86675781 11.16726562 6.42492187 12 7 C12 7.66 12 8.32 12 9 C7.21357393 8.4253379 3.46211213 7.01754357 -0.875 4.9375 C-2.02742187 4.38964844 -3.17984375 3.84179688 -4.3671875 3.27734375 C-5.23601562 2.85582031 -6.10484375 2.43429687 -7 2 C-7 1.34 -7 0.68 -7 0 C-4.22477414 -1.38761293 -2.97504381 -0.8350264 0 0 Z " fill="#F7FAFE" transform="translate(173,429)"/>
</svg>
